<?xml version="1.0" encoding="utf-8"?>
<!-- Generator: Adobe Illustrator 17.0.0, SVG Export Plug-In . SVG Version: 6.00 Build 0)  -->
<!DOCTYPE svg PUBLIC "-//W3C//DTD SVG 1.1//EN" "http://www.w3.org/Graphics/SVG/1.1/DTD/svg11.dtd">
<svg version="1.1" id="Layer_1" xmlns="http://www.w3.org/2000/svg" xmlns:xlink="http://www.w3.org/1999/xlink" x="0px" y="0px"
	 width="50px" height="50px" viewBox="0 0 50 50" enable-background="new 0 0 50 50" xml:space="preserve">
<g>
	<path fill="#000000" d="M38.881,16.257h-9.407l-4.139-3.977c-0.312-0.3-0.823-0.3-1.136-0.002l-4.164,3.978h-8.916
		c-1.32,0-2.391,1.001-2.391,2.236v21.245c0,1.235,1.07,2.236,2.391,2.236h27.762c1.321,0,2.391-1.001,2.391-2.236V18.493
		C41.272,17.258,40.201,16.257,38.881,16.257z M25,22.683c1.686,0,3.053,1.367,3.053,3.053S26.686,28.789,25,28.789
		c-1.686,0-3.053-1.367-3.053-3.053S23.314,22.683,25,22.683z M32.179,36.203H17.821v-1.104c0-2.226,1.804-4.03,4.03-4.03h6.298
		c2.226,0,4.03,1.804,4.03,4.03V36.203z"/>
</g>
</svg>
